<svg width="136"  height="104"  viewBox="0 0 136 104" fill="none" xmlns="http://www.w3.org/2000/svg">
<g id="Layer_1" clip-path="url(#clip0_739_114395)">
<g id="Group">
<path id="Vector"  d="M12.5573 69.0577C10.5155 69.0238 8.81099 69.4496 7.44366 70.3382C6.07633 71.2268 5.26391 72.3159 5.00332 73.6025C4.74273 74.8922 5.15967 76.2251 6.24802 77.5981C7.33943 78.9742 9.31991 80.1158 12.1925 81.0199C13.4372 81.4025 14.6421 81.8468 15.8009 82.3528C16.9598 82.8588 17.9899 83.5129 18.8912 84.312C19.8937 85.1482 20.7 86.1077 21.3039 87.1845C21.9079 88.2644 22.1961 89.4832 22.1593 90.8407C22.1256 92.1644 21.7515 93.4016 21.0434 94.5494C20.3321 95.7003 19.4093 96.6907 18.2658 97.5268C17.1223 98.363 15.8254 99.0233 14.3723 99.5107C12.9191 99.9982 11.4291 100.227 9.90853 100.19H9.75218C7.88206 100.119 6.31546 99.8316 5.05544 99.3287C3.79235 98.8258 2.76225 98.3105 1.96516 97.7891C1.41025 97.4065 0.968785 96.9437 0.640749 96.4037C0.312713 95.8638 0.122637 95.3238 0.0705187 94.7839C0.0184009 94.244 0.147163 93.7318 0.45987 93.2443C0.772577 92.7568 1.29069 92.3742 2.01727 92.0934C2.08779 92.6519 2.30239 93.3307 2.66721 94.1298C3.02897 94.932 3.53176 95.6972 4.1725 96.4284C4.81324 97.1597 5.59195 97.7953 6.50861 98.3352C7.42527 98.8752 8.48908 99.1621 9.70006 99.196C11.049 99.23 12.2692 99.0479 13.3606 98.6468C14.452 98.2457 15.3319 97.6996 16.0094 97.0023C16.6839 96.305 17.1161 95.5213 17.3062 94.6512C17.4963 93.7811 17.3767 92.9018 16.9444 92.0132C16.5122 91.1246 15.7427 90.2638 14.6329 89.4276C13.5261 88.5915 12.0178 87.8602 10.117 87.2339C8.83552 86.8513 7.62454 86.407 6.48408 85.901C5.34055 85.3981 4.31966 84.744 3.42139 83.9418C2.3821 83.1395 1.56048 82.1923 0.956522 81.0939C0.349502 79.9955 0.0643872 78.786 0.101176 77.4624C0.1349 76.1387 0.508922 74.8953 1.21711 73.726C1.9253 72.5597 2.85116 71.5569 3.99469 70.7208C5.13821 69.8846 6.44116 69.2243 7.91272 68.7338C9.38428 68.2463 10.8804 68.021 12.4041 68.055C14.2742 68.1259 15.8561 68.4129 17.1529 68.9158C18.4497 69.4218 19.4982 69.9525 20.2922 70.5079C20.8441 70.8905 21.2947 71.344 21.6412 71.8654C21.9876 72.3869 22.1869 72.9207 22.239 73.4575C22.2911 73.9975 22.1624 74.5127 21.8496 75.0002C21.5369 75.4877 21.0004 75.8888 20.2401 76.2005C20.1696 75.6451 19.9611 74.9632 19.6178 74.1641C19.2713 73.3619 18.7778 72.5874 18.137 71.8377C17.4963 71.0879 16.7084 70.4462 15.7764 69.9031C14.8413 69.3632 13.7683 69.0762 12.5573 69.0423V69.0577Z" fill="white"/>
<path id="Vector_2" d="M54.6318 68.9004C54.8924 69.4218 54.9598 69.9803 54.8403 70.5727C54.7176 71.1651 54.4754 71.6958 54.1137 72.1647C53.7519 72.6337 53.3963 72.8189 53.0499 72.714C52.7034 72.609 52.3846 72.356 52.0903 71.9549C51.796 71.5538 51.4495 71.128 51.051 70.6745C50.6524 70.2209 50.1681 69.8198 49.5978 69.4712C49.0276 69.1225 48.2918 68.9497 47.3905 68.9497H46.4554V68.8973H42.6662V93.8706C42.6662 95.0894 42.8654 95.978 43.264 96.5364C43.6625 97.0949 44.104 97.459 44.5884 97.6348C45.1402 97.8446 45.781 97.8786 46.5106 97.7397C46.4769 98.0544 46.3021 98.3506 45.9925 98.6283C45.6798 98.9091 45.2812 99.1683 44.7999 99.412C44.3155 99.6558 43.7606 99.8471 43.1383 99.9859C42.5159 100.125 41.8936 100.196 41.2682 100.196C40.6795 100.196 40.1001 100.119 39.5299 99.9612C38.9597 99.8039 38.4569 99.5447 38.0246 99.1775C37.5923 98.8104 37.2459 98.3321 36.9853 97.7397C36.7247 97.1473 36.596 96.4161 36.596 95.546V68.9004H32.8588V68.9528H31.8716C30.9703 68.9528 30.2376 69.1287 29.6643 69.4743C29.0941 69.8229 28.6158 70.224 28.2356 70.6776C27.8555 71.1311 27.5091 71.5569 27.1963 71.958C26.8836 72.3591 26.5556 72.6121 26.2092 72.717C25.8965 72.8219 25.5592 72.6399 25.1975 72.1678C24.8357 71.6958 24.5905 71.1682 24.4709 70.5758C24.3513 69.9834 24.4188 69.4249 24.6794 68.9035C24.94 68.382 25.5194 68.1198 26.4176 68.1198H31.7122V68.0673H47.599V68.1198H52.8935C53.7918 68.1198 54.3743 68.382 54.6318 68.9035V68.9004Z" fill="white"/>
<path id="Vector_3" d="M64.3655 68.0642C66.5453 68.0642 68.5871 68.4807 70.4909 69.3169C72.3947 70.153 74.0564 71.2946 75.4758 72.7386C76.8953 74.1857 78.0204 75.8641 78.8512 77.7802C79.682 79.6962 80.0959 81.7511 80.0959 83.9448V84.312C80.0959 86.5057 79.682 88.5606 78.8512 90.4766C78.0204 92.3927 76.8953 94.0742 75.4758 95.5182C74.0564 96.9653 72.3947 98.1038 70.4909 98.9399C68.5871 99.7761 66.5453 100.193 64.3655 100.193H64.0007C61.8209 100.193 59.7792 99.773 57.8753 98.9399C55.9715 98.1038 54.3006 96.9622 52.8659 95.5182C51.428 94.0742 50.2968 92.3927 49.466 90.4766C48.6351 88.5606 48.2213 86.5057 48.2213 84.312V83.9448C48.2213 81.7511 48.6351 79.6962 49.466 77.7802C50.2968 75.8641 51.4311 74.1857 52.8659 72.7386C54.3006 71.2946 55.9715 70.153 57.8753 69.3169C59.7792 68.4807 61.8209 68.0642 64.0007 68.0642H64.3655ZM70.6994 97.8446C71.9104 97.2892 72.8791 96.4068 73.6057 95.2066C74.3323 94.0033 74.8167 92.6025 75.0589 91.0012C75.3011 89.3998 75.2735 87.6751 74.9822 85.83C74.6879 83.9849 74.1085 82.1213 73.244 80.2392L72.9834 79.7178C72.1188 77.8357 71.0795 76.1819 69.8686 74.7534C68.6576 73.3248 67.3669 72.1863 65.9996 71.3317C64.6322 70.477 63.2557 69.9463 61.8731 69.7396C60.4873 69.5298 59.1905 69.7056 57.9796 70.261L57.6147 70.4184C56.4038 70.9768 55.435 71.8654 54.7084 73.0842C53.9818 74.3029 53.4974 75.7068 53.2552 77.2896C53.013 78.8755 53.0468 80.6002 53.3595 82.4607C53.6722 84.3243 54.2577 86.1787 55.1253 88.0237L55.3338 88.5452C56.1984 90.4273 57.2376 92.0811 58.4486 93.5096C59.6596 94.9382 60.9472 96.0798 62.3176 96.9313C63.6849 97.786 65.0615 98.3259 66.4441 98.5512C67.8268 98.7795 69.1266 98.5944 70.3376 98.002L70.7024 97.8446H70.6994Z" fill="white"/>
<path id="Vector_4" d="M97.5401 86.4533C99.5114 87.0118 101.13 87.8294 102.393 88.9093C103.656 89.9892 104.705 91.1647 105.533 92.4359C106.363 93.7071 107.065 94.9875 107.636 96.2773C108.206 97.567 108.785 98.7147 109.374 99.7267C109.963 100.739 110.646 101.522 111.425 102.078C112.204 102.636 113.234 102.794 114.515 102.547C112.369 103.766 110.536 104.219 109.012 103.904C107.488 103.59 106.149 102.834 104.99 101.63C103.831 100.43 102.783 98.9646 101.851 97.243C100.915 95.5182 99.9651 93.8552 98.9963 92.2539C98.0275 90.6525 96.979 89.2857 95.857 88.1534C94.7318 87.021 93.4074 86.4564 91.8868 86.4564V93.8768C91.8868 95.0955 92.0861 95.9841 92.4846 96.5426C92.8832 97.101 93.3247 97.4651 93.809 97.641C94.3609 97.8508 95.0047 97.8847 95.7313 97.7459C95.6976 98.0606 95.5228 98.3568 95.2132 98.6345C94.9005 98.9153 94.4958 99.1744 93.993 99.4182C93.4902 99.6619 92.9384 99.8532 92.3314 99.9921C91.7243 100.131 91.1112 100.202 90.4888 100.202C89.9002 100.202 89.3208 100.125 88.7506 99.9674C88.1803 99.81 87.6775 99.5509 87.2453 99.1837C86.813 98.8165 86.4666 98.3383 86.206 97.7459C85.9454 97.1535 85.8166 96.4223 85.8166 95.5522V74.3924C85.8166 73.1737 85.6174 72.2851 85.2188 71.7266C84.8203 71.1712 84.3788 70.8041 83.8944 70.6282C83.3058 70.4184 82.665 70.3845 81.9722 70.5233C82.0059 70.2086 82.1806 69.9155 82.4903 69.6347C82.803 69.357 83.1985 69.0948 83.6859 68.851C84.1703 68.6073 84.7252 68.416 85.3476 68.2771C85.9699 68.1383 86.5923 68.0673 87.2177 68.0673H98.6897C100.005 68.0673 101.25 68.3111 102.427 68.7986C103.604 69.2861 104.634 69.9494 105.517 70.7825C106.4 71.6186 107.09 72.5936 107.593 73.7075C108.092 74.8213 108.347 76.0061 108.347 77.2619C108.347 78.5176 108.095 79.6993 107.593 80.8132C107.09 81.927 106.4 82.902 105.517 83.7381C104.634 84.5743 103.604 85.2346 102.427 85.722C101.25 86.2095 100.005 86.4533 98.6897 86.4533H97.5462H97.5401ZM93.4381 85.6171C94.6491 85.6171 95.7926 85.4012 96.8656 84.963C97.9386 84.528 98.8737 83.9263 99.6677 83.1612C100.465 82.396 101.096 81.5074 101.562 80.4954C102.028 79.4864 102.264 78.4065 102.264 77.2557C102.264 76.1048 102.031 75.028 101.562 74.016C101.096 73.0071 100.462 72.1185 99.6677 71.3502C98.8706 70.585 97.9386 69.9834 96.8656 69.5483C95.7926 69.1133 94.6491 68.8942 93.4381 68.8942H91.8807V85.6141H93.4381V85.6171Z" fill="white"/>
<path id="Vector_5" d="M125.417 68.9004C124.24 68.9004 123.289 69.2737 122.563 70.0235C121.836 70.7732 121.471 71.7204 121.471 72.8713V83.7381H123.651C124.549 83.7381 125.276 83.6517 125.831 83.4758C126.383 83.3031 126.843 83.1025 127.207 82.8742C127.572 82.649 127.882 82.4145 128.142 82.1676C128.403 81.9239 128.722 81.7511 129.102 81.6462C129.724 81.4025 130.184 81.5752 130.479 82.1676C130.773 82.76 130.92 83.4049 130.92 84.1022C130.92 84.8334 130.773 85.4875 130.479 86.0614C130.184 86.6353 129.724 86.8174 129.102 86.6106C128.722 86.5057 128.4 86.3329 128.142 86.0892C127.882 85.8454 127.572 85.611 127.207 85.3826C126.843 85.1574 126.386 84.9568 125.831 84.781C125.276 84.6082 124.549 84.5187 123.651 84.5187H121.471V95.3331C121.471 96.5518 121.842 97.5268 122.587 98.2581C123.332 98.9893 124.273 99.3565 125.417 99.3565H128.48C129.378 99.3565 130.114 99.1744 130.687 98.8073C131.257 98.4401 131.742 98.0421 132.14 97.607C132.539 97.172 132.885 96.7462 133.179 96.3266C133.474 95.9101 133.793 95.6478 134.139 95.5429C134.486 95.438 134.841 95.6293 135.203 96.1168C135.568 96.6043 135.807 97.1442 135.929 97.7366C136.049 98.329 135.982 98.8875 135.721 99.4089C135.46 99.9304 134.881 100.193 133.983 100.193H120.175C118.617 100.193 117.431 99.7915 116.618 98.9893C115.806 98.1871 115.398 96.9344 115.398 95.2282V74.3831C115.398 73.1644 115.199 72.2758 114.8 71.7173C114.402 71.162 113.96 70.7948 113.476 70.6189C112.887 70.4091 112.247 70.3752 111.554 70.514C111.587 70.1993 111.762 69.9062 112.072 69.6254C112.384 69.3477 112.78 69.0855 113.267 68.8417C113.752 68.598 114.307 68.4067 114.929 68.2679C115.551 68.129 116.174 68.058 116.799 68.058H133.983C134.881 68.058 135.463 68.3203 135.721 68.8417C135.982 69.3632 136.049 69.9216 135.929 70.514C135.807 71.1064 135.565 71.6464 135.203 72.1339C134.841 72.6214 134.501 72.8127 134.191 72.7078C133.811 72.6029 133.474 72.3406 133.179 71.9241C132.885 71.5075 132.548 71.0787 132.168 70.6436C131.788 70.2086 131.312 69.8075 130.739 69.4403C130.169 69.0731 129.433 68.8911 128.532 68.8911H125.417V68.9004Z" fill="white"/>
</g>
<g id="Group_2">
<path id="Vector_6" d="M46.6117 1.36992C44.5853 0.487495 42.3503 0 39.9989 0H5.17805C2.38515 0 0.122617 2.27703 0.122617 5.08476C0.122617 7.89866 2.38515 10.1757 5.17498 10.1757H38.4599C39.1098 8.83971 39.9499 7.58086 40.9677 6.44234C42.3442 4.90889 43.9384 3.66547 45.7012 2.75219C46.342 2.40971 47.0011 2.11659 47.6786 1.87593C47.3322 1.69389 46.9766 1.52111 46.6117 1.36992ZM38.3771 47.0556H5.09834C2.3085 47.0556 0.0459735 49.3327 0.0459735 52.1404H0.0429077C0.0429077 54.9512 2.30544 57.2282 5.09527 57.2282H39.9161C42.2338 57.2282 44.4412 56.7562 46.4431 55.8984C46.808 55.7441 47.1636 55.5744 47.5131 55.3955C43.5307 53.9546 40.2135 50.9957 38.3741 47.0525L38.3771 47.0556Z" fill="white"/>
<path id="Vector_7" d="M46.2561 38.3825C46.1121 38.944 46.0385 39.5303 46.0385 40.135C46.0385 40.82 46.1366 41.4803 46.3205 42.1066C46.4738 41.5543 46.5535 40.9742 46.5535 40.3757C46.5535 39.6815 46.4493 39.0119 46.2561 38.3825ZM80.1511 34.245C79.7741 33.995 79.3694 33.7821 78.9432 33.6063C78.9003 33.5909 78.8574 33.5723 78.8145 33.5569C78.606 33.4767 78.3883 33.4026 78.1676 33.344C77.6771 33.2083 77.1651 33.125 76.6378 33.1034H54.923C55.0579 33.3841 55.1867 33.6711 55.3032 33.9611H76.6194C77.1559 33.9858 77.6771 34.0814 78.1676 34.2388C78.1737 34.2388 78.1799 34.2419 78.186 34.245C80.6631 35.0348 82.4351 37.3736 82.4351 40.135C82.4351 42.8965 80.6754 45.1519 78.2289 45.9757C78.2105 45.985 78.1891 45.9911 78.1676 45.9973C77.5606 46.1978 76.9076 46.3058 76.2331 46.3058H55.5454C55.4412 46.5959 55.3247 46.8828 55.202 47.1636H76.3128C76.9566 47.1574 77.5759 47.0648 78.1676 46.8951C78.3883 46.8334 78.6029 46.7594 78.8145 46.6761C78.8451 46.6668 78.8727 46.6545 78.9003 46.6421C78.9248 46.6329 78.9463 46.6236 78.9678 46.6144C79.2406 46.5002 79.5043 46.3706 79.7557 46.2256C79.8936 46.1454 80.0254 46.0621 80.1573 45.9757C82.0488 44.7138 83.2966 42.5663 83.2966 40.135C83.2966 37.7037 82.055 35.5069 80.1511 34.245ZM46.2561 38.3825C46.1121 38.944 46.0385 39.5303 46.0385 40.135C46.0385 40.82 46.1366 41.4803 46.3205 42.1066C46.4738 41.5543 46.5535 40.9742 46.5535 40.3757C46.5535 39.6815 46.4493 39.0119 46.2561 38.3825ZM80.1511 34.245C79.7741 33.995 79.3694 33.7821 78.9432 33.6063C78.9003 33.5909 78.8574 33.5723 78.8145 33.5569C78.606 33.4767 78.3883 33.4026 78.1676 33.344C77.6771 33.2083 77.1651 33.125 76.6378 33.1034H54.923C55.0579 33.3841 55.1867 33.6711 55.3032 33.9611H76.6194C77.1559 33.9858 77.6771 34.0814 78.1676 34.2388C78.1737 34.2388 78.1799 34.2419 78.186 34.245C80.6631 35.0348 82.4351 37.3736 82.4351 40.135C82.4351 42.8965 80.6754 45.1519 78.2289 45.9757C78.2105 45.985 78.1891 45.9911 78.1676 45.9973C77.5606 46.1978 76.9076 46.3058 76.2331 46.3058H55.5454C55.4412 46.5959 55.3247 46.8828 55.202 47.1636H76.3128C76.9566 47.1574 77.5759 47.0648 78.1676 46.8951C78.3883 46.8334 78.6029 46.7594 78.8145 46.6761C78.8451 46.6668 78.8727 46.6545 78.9003 46.6421C78.9248 46.6329 78.9463 46.6236 78.9678 46.6144C79.2406 46.5002 79.5043 46.3706 79.7557 46.2256C79.8936 46.1454 80.0254 46.0621 80.1573 45.9757C82.0488 44.7138 83.2966 42.5663 83.2966 40.135C83.2966 37.7037 82.055 35.5069 80.1511 34.245ZM46.2561 38.3825C46.1121 38.944 46.0385 39.5303 46.0385 40.135C46.0385 40.82 46.1366 41.4803 46.3205 42.1066C46.4738 41.5543 46.5535 40.9742 46.5535 40.3757C46.5535 39.6815 46.4493 39.0119 46.2561 38.3825ZM80.1511 34.245C79.7741 33.995 79.3694 33.7821 78.9432 33.6063C78.9003 33.5909 78.8574 33.5723 78.8145 33.5569C78.606 33.4767 78.3883 33.4026 78.1676 33.344C77.6771 33.2083 77.1651 33.125 76.6378 33.1034H54.923C55.0579 33.3841 55.1867 33.6711 55.3032 33.9611H76.6194C77.1559 33.9858 77.6771 34.0814 78.1676 34.2388C78.1737 34.2388 78.1799 34.2419 78.186 34.245C80.6631 35.0348 82.4351 37.3736 82.4351 40.135C82.4351 42.8965 80.6754 45.1519 78.2289 45.9757C78.2105 45.985 78.1891 45.9911 78.1676 45.9973C77.5606 46.1978 76.9076 46.3058 76.2331 46.3058H55.5454C55.4412 46.5959 55.3247 46.8828 55.202 47.1636H76.3128C76.9566 47.1574 77.5759 47.0648 78.1676 46.8951C78.3883 46.8334 78.6029 46.7594 78.8145 46.6761C78.8451 46.6668 78.8727 46.6545 78.9003 46.6421C78.9248 46.6329 78.9463 46.6236 78.9678 46.6144C79.2406 46.5002 79.5043 46.3706 79.7557 46.2256C79.8936 46.1454 80.0254 46.0621 80.1573 45.9757C82.0488 44.7138 83.2966 42.5663 83.2966 40.135C83.2966 37.7037 82.055 35.5069 80.1511 34.245ZM46.2561 38.3825C46.1121 38.944 46.0385 39.5303 46.0385 40.135C46.0385 40.82 46.1366 41.4803 46.3205 42.1066C46.4738 41.5543 46.5535 40.9742 46.5535 40.3757C46.5535 39.6815 46.4493 39.0119 46.2561 38.3825ZM80.1511 34.245C79.7741 33.995 79.3694 33.7821 78.9432 33.6063C78.9003 33.5909 78.8574 33.5723 78.8145 33.5569C78.606 33.4767 78.3883 33.4026 78.1676 33.344C77.6771 33.2083 77.1651 33.125 76.6378 33.1034H54.923C55.0579 33.3841 55.1867 33.6711 55.3032 33.9611H76.6194C77.1559 33.9858 77.6771 34.0814 78.1676 34.2388C78.1737 34.2388 78.1799 34.2419 78.186 34.245C80.6631 35.0348 82.4351 37.3736 82.4351 40.135C82.4351 42.8965 80.6754 45.1519 78.2289 45.9757C78.2105 45.985 78.1891 45.9911 78.1676 45.9973C77.5606 46.1978 76.9076 46.3058 76.2331 46.3058H55.5454C55.4412 46.5959 55.3247 46.8828 55.202 47.1636H76.3128C76.9566 47.1574 77.5759 47.0648 78.1676 46.8951C78.3883 46.8334 78.6029 46.7594 78.8145 46.6761C78.8451 46.6668 78.8727 46.6545 78.9003 46.6421C78.9248 46.6329 78.9463 46.6236 78.9678 46.6144C79.2406 46.5002 79.5043 46.3706 79.7557 46.2256C79.8936 46.1454 80.0254 46.0621 80.1573 45.9757C82.0488 44.7138 83.2966 42.5663 83.2966 40.135C83.2966 37.7037 82.055 35.5069 80.1511 34.245ZM55.3216 10.1571C55.4412 10.4379 55.5546 10.7249 55.6588 11.0149H78.8145V10.1571H55.3216ZM76.6378 23.3627H55.3645C55.2511 23.6527 55.1254 23.9366 54.9966 24.2174H76.6317C77.1467 24.2266 77.6618 24.2606 78.1676 24.3192V23.4584C77.6618 23.4028 77.1528 23.3689 76.6378 23.3627ZM46.3788 15.0321C46.155 15.7109 46.0385 16.436 46.0385 17.1888V19.6078C46.4186 18.7685 46.6332 17.8337 46.6332 16.8494C46.6332 16.22 46.5443 15.6091 46.3788 15.0321ZM46.2561 38.3825C46.1121 38.944 46.0385 39.5303 46.0385 40.135C46.0385 40.82 46.1366 41.4803 46.3205 42.1066C46.4738 41.5543 46.5535 40.9742 46.5535 40.3757C46.5535 39.6815 46.4493 39.0119 46.2561 38.3825ZM80.1511 34.245C79.7741 33.995 79.3694 33.7821 78.9432 33.6063C78.9003 33.5909 78.8574 33.5723 78.8145 33.5569C78.606 33.4767 78.3883 33.4026 78.1676 33.344C77.6771 33.2083 77.1651 33.125 76.6378 33.1034H54.923C55.0579 33.3841 55.1867 33.6711 55.3032 33.9611H76.6194C77.1559 33.9858 77.6771 34.0814 78.1676 34.2388C78.1737 34.2388 78.1799 34.2419 78.186 34.245C80.6631 35.0348 82.4351 37.3736 82.4351 40.135C82.4351 42.8965 80.6754 45.1519 78.2289 45.9757C78.2105 45.985 78.1891 45.9911 78.1676 45.9973C77.5606 46.1978 76.9076 46.3058 76.2331 46.3058H55.5454C55.4412 46.5959 55.3247 46.8828 55.202 47.1636H76.3128C76.9566 47.1574 77.5759 47.0648 78.1676 46.8951C78.3883 46.8334 78.6029 46.7594 78.8145 46.6761C78.8451 46.6668 78.8727 46.6545 78.9003 46.6421C78.9248 46.6329 78.9463 46.6236 78.9678 46.6144C79.2406 46.5002 79.5043 46.3706 79.7557 46.2256C79.8936 46.1454 80.0254 46.0621 80.1573 45.9757C82.0488 44.7138 83.2966 42.5663 83.2966 40.135C83.2966 37.7037 82.055 35.5069 80.1511 34.245ZM80.1511 34.245C79.7741 33.995 79.3694 33.7821 78.9432 33.6063C78.9003 33.5909 78.8574 33.5723 78.8145 33.5569C78.606 33.4767 78.3883 33.4026 78.1676 33.344C77.6771 33.2083 77.1651 33.125 76.6378 33.1034H54.923C55.0579 33.3841 55.1867 33.6711 55.3032 33.9611H76.6194C77.1559 33.9858 77.6771 34.0814 78.1676 34.2388C78.1737 34.2388 78.1799 34.2419 78.186 34.245C80.6631 35.0348 82.4351 37.3736 82.4351 40.135C82.4351 42.8965 80.6754 45.1519 78.2289 45.9757C78.2105 45.985 78.1891 45.9911 78.1676 45.9973C77.5606 46.1978 76.9076 46.3058 76.2331 46.3058H55.5454C55.4412 46.5959 55.3247 46.8828 55.202 47.1636H76.3128C76.9566 47.1574 77.5759 47.0648 78.1676 46.8951C78.3883 46.8334 78.6029 46.7594 78.8145 46.6761C78.8451 46.6668 78.8727 46.6545 78.9003 46.6421C78.9248 46.6329 78.9463 46.6236 78.9678 46.6144C79.2406 46.5002 79.5043 46.3706 79.7557 46.2256C79.8936 46.1454 80.0254 46.0621 80.1573 45.9757C82.0488 44.7138 83.2966 42.5663 83.2966 40.135C83.2966 37.7037 82.055 35.5069 80.1511 34.245ZM46.2561 38.3825C46.1121 38.944 46.0385 39.5303 46.0385 40.135C46.0385 40.82 46.1366 41.4803 46.3205 42.1066C46.4738 41.5543 46.5535 40.9742 46.5535 40.3757C46.5535 39.6815 46.4493 39.0119 46.2561 38.3825ZM53.102 0.0925293C50.7965 0.0925293 48.6198 0.521402 46.6118 1.36989C46.1672 1.5581 45.7258 1.76482 45.2966 1.99314C43.4448 2.95579 41.7709 4.26092 40.3208 5.87459C39.1559 7.17664 38.2116 8.62987 37.5065 10.1757C36.5254 12.3262 36.0073 14.6557 36.0073 17.0253V23.5262H36.8688V17.0253C36.8688 14.6495 37.4176 12.3108 38.4599 10.1757C39.1068 8.83967 39.9499 7.58391 40.9647 6.44539C42.3442 4.91194 43.9354 3.66852 45.7012 2.75215C46.342 2.40967 47.0011 2.11656 47.6787 1.8759C49.3771 1.2619 51.1951 0.953359 53.102 0.953359H87.8554V10.1571H55.3216C55.4412 10.4379 55.5546 10.7249 55.6588 11.0149H88.7169V0.0925293H53.102ZM46.0385 17.1888V19.6078C46.4186 18.7685 46.6332 17.8337 46.6332 16.8494C46.6332 16.22 46.5443 15.6091 46.3788 15.0321C46.155 15.7109 46.0385 16.436 46.0385 17.1888ZM46.2561 38.3825C46.1121 38.944 46.0385 39.5303 46.0385 40.135C46.0385 40.82 46.1366 41.4803 46.3205 42.1066C46.4738 41.5543 46.5535 40.9742 46.5535 40.3757C46.5535 39.6815 46.4493 39.0119 46.2561 38.3825ZM80.1511 34.245C79.7741 33.995 79.3694 33.7821 78.9432 33.6063C78.9003 33.5909 78.8574 33.5723 78.8145 33.5569C78.606 33.4767 78.3883 33.4026 78.1676 33.344C77.6771 33.2083 77.1651 33.125 76.6378 33.1034H54.923C55.0579 33.3841 55.1867 33.6711 55.3032 33.9611H76.6194C77.1559 33.9858 77.6771 34.0814 78.1676 34.2388C78.1737 34.2388 78.1799 34.2419 78.186 34.245C80.6631 35.0348 82.4351 37.3736 82.4351 40.135C82.4351 42.8965 80.6754 45.1519 78.2289 45.9757C78.2105 45.985 78.1891 45.9911 78.1676 45.9973C77.5606 46.1978 76.9076 46.3058 76.2331 46.3058H55.5454C55.4412 46.5959 55.3247 46.8828 55.202 47.1636H76.3128C76.9566 47.1574 77.5759 47.0648 78.1676 46.8951C78.3883 46.8334 78.6029 46.7594 78.8145 46.6761C78.8451 46.6668 78.8727 46.6545 78.9003 46.6421C78.9248 46.6329 78.9463 46.6236 78.9678 46.6144C79.2406 46.5002 79.5043 46.3706 79.7557 46.2256C79.8936 46.1454 80.0254 46.0621 80.1573 45.9757C82.0488 44.7138 83.2966 42.5663 83.2966 40.135C83.2966 37.7037 82.055 35.5069 80.1511 34.245ZM92.3467 34.245C92.267 34.029 92.1873 33.8192 92.0953 33.6063C92.0064 33.3934 91.9114 33.1805 91.8163 32.9707C91.0192 31.2675 89.9401 29.6971 88.5942 28.321L88.4961 28.3796C85.9914 25.8958 82.8613 24.2636 79.4613 23.6435C79.2467 23.6034 79.0321 23.5663 78.8145 23.5386C78.5999 23.5046 78.3853 23.48 78.1676 23.4584C77.6618 23.4028 77.1528 23.3689 76.6378 23.3627H55.3645C55.2511 23.6527 55.1254 23.9366 54.9966 24.2174H76.6317C77.1467 24.2266 77.6618 24.2606 78.1676 24.3192C78.3853 24.3408 78.5999 24.3686 78.8145 24.4025C79.0291 24.4364 79.2437 24.4735 79.4613 24.5136C82.7049 25.1368 85.6879 26.7381 88.0577 29.1602L88.1558 29.1016C89.2104 30.2185 90.0934 31.4712 90.7801 32.8164C90.8077 32.8689 90.8353 32.9213 90.8598 32.9707C90.9641 33.1805 91.0652 33.3934 91.1572 33.6063C91.2522 33.8192 91.3412 34.029 91.427 34.245C92.1597 36.1178 92.546 38.1357 92.546 40.2152C92.546 42.2948 92.1689 44.1862 91.4791 45.9757C91.3963 46.1917 91.3105 46.4046 91.2155 46.6144C91.1235 46.8304 91.0284 47.0432 90.9242 47.2531C88.8088 51.5819 84.8111 54.837 79.9917 55.9508C79.6054 56.0434 79.21 56.1174 78.8145 56.1792C78.6918 56.1977 78.5661 56.2162 78.4435 56.2316C78.3515 56.2439 78.2596 56.2563 78.1676 56.2655C77.5606 56.3365 76.9413 56.3704 76.3128 56.3704H53.102C51.1552 56.3704 49.2729 56.0311 47.5162 55.3955C43.5338 53.9546 40.2166 50.9957 38.3772 47.0525C38.2944 46.8674 38.2116 46.6853 38.1319 46.494C37.2949 44.4083 36.8688 42.267 36.8688 40.135V33.7019H36.0073V40.135C36.0073 42.3781 36.4519 44.6243 37.3348 46.8211C37.3655 46.8982 37.4022 46.9754 37.4329 47.0525C39.2202 51.1252 42.4791 54.2415 46.4432 55.8984C48.5064 56.7623 50.7628 57.2282 53.102 57.2282H76.3128C76.9413 57.2282 77.5575 57.1912 78.1676 57.1264C78.6459 57.0739 79.118 57.006 79.5809 56.9135C80.0469 56.824 80.5037 56.716 80.9544 56.5895C81.5859 56.4106 82.2021 56.1977 82.8 55.9508C86.8192 54.3063 90.075 51.1746 91.8746 47.2531C91.9696 47.0432 92.0616 46.8304 92.1505 46.6144C92.2364 46.4046 92.3191 46.1917 92.3958 45.9757C93.0488 44.1769 93.4044 42.2362 93.4044 40.2152C93.4044 38.1943 93.0426 36.1271 92.3437 34.245H92.3467ZM78.9003 46.6421C78.9248 46.6329 78.9463 46.6236 78.9678 46.6144C79.2406 46.5002 79.5043 46.3706 79.7557 46.2256C79.4522 46.3305 79.167 46.4694 78.9003 46.6421ZM80.1511 34.245C79.7741 33.995 79.3694 33.7821 78.9432 33.6063C78.9003 33.5909 78.8574 33.5723 78.8145 33.5569C78.606 33.4767 78.3883 33.4026 78.1676 33.344C77.6771 33.2083 77.1651 33.125 76.6378 33.1034H54.923C55.0579 33.3841 55.1867 33.6711 55.3032 33.9611H76.6194C77.1559 33.9858 77.6771 34.0814 78.1676 34.2388C78.1737 34.2388 78.1799 34.2419 78.186 34.245C80.6631 35.0348 82.4351 37.3736 82.4351 40.135C82.4351 42.8965 80.6754 45.1519 78.2289 45.9757C78.2105 45.985 78.1891 45.9911 78.1676 45.9973C77.5606 46.1978 76.9076 46.3058 76.2331 46.3058H55.5454C55.4412 46.5959 55.3247 46.8828 55.202 47.1636H76.3128C76.9566 47.1574 77.5759 47.0648 78.1676 46.8951C78.3883 46.8334 78.6029 46.7594 78.8145 46.6761C78.8451 46.6668 78.8727 46.6545 78.9003 46.6421C78.9248 46.6329 78.9463 46.6236 78.9678 46.6144C79.2406 46.5002 79.5043 46.3706 79.7557 46.2256C79.8936 46.1454 80.0254 46.0621 80.1573 45.9757C82.0488 44.7138 83.2966 42.5663 83.2966 40.135C83.2966 37.7037 82.055 35.5069 80.1511 34.245ZM46.3788 15.0321C46.155 15.7109 46.0385 16.436 46.0385 17.1888V19.6078C46.4186 18.7685 46.6332 17.8337 46.6332 16.8494C46.6332 16.22 46.5443 15.6091 46.3788 15.0321ZM46.2561 38.3825C46.1121 38.944 46.0385 39.5303 46.0385 40.135C46.0385 40.82 46.1366 41.4803 46.3205 42.1066C46.4738 41.5543 46.5535 40.9742 46.5535 40.3757C46.5535 39.6815 46.4493 39.0119 46.2561 38.3825ZM46.2561 38.3825C46.1121 38.944 46.0385 39.5303 46.0385 40.135C46.0385 40.82 46.1366 41.4803 46.3205 42.1066C46.4738 41.5543 46.5535 40.9742 46.5535 40.3757C46.5535 39.6815 46.4493 39.0119 46.2561 38.3825ZM80.1511 34.245C79.7741 33.995 79.3694 33.7821 78.9432 33.6063C78.9003 33.5909 78.8574 33.5723 78.8145 33.5569C78.606 33.4767 78.3883 33.4026 78.1676 33.344C77.6771 33.2083 77.1651 33.125 76.6378 33.1034H54.923C55.0579 33.3841 55.1867 33.6711 55.3032 33.9611H76.6194C77.1559 33.9858 77.6771 34.0814 78.1676 34.2388C78.1737 34.2388 78.1799 34.2419 78.186 34.245C80.6631 35.0348 82.4351 37.3736 82.4351 40.135C82.4351 42.8965 80.6754 45.1519 78.2289 45.9757C78.2105 45.985 78.1891 45.9911 78.1676 45.9973C77.5606 46.1978 76.9076 46.3058 76.2331 46.3058H55.5454C55.4412 46.5959 55.3247 46.8828 55.202 47.1636H76.3128C76.9566 47.1574 77.5759 47.0648 78.1676 46.8951C78.3883 46.8334 78.6029 46.7594 78.8145 46.6761C78.8451 46.6668 78.8727 46.6545 78.9003 46.6421C78.9248 46.6329 78.9463 46.6236 78.9678 46.6144C79.2406 46.5002 79.5043 46.3706 79.7557 46.2256C79.8936 46.1454 80.0254 46.0621 80.1573 45.9757C82.0488 44.7138 83.2966 42.5663 83.2966 40.135C83.2966 37.7037 82.055 35.5069 80.1511 34.245ZM46.2561 38.3825C46.1121 38.944 46.0385 39.5303 46.0385 40.135C46.0385 40.82 46.1366 41.4803 46.3205 42.1066C46.4738 41.5543 46.5535 40.9742 46.5535 40.3757C46.5535 39.6815 46.4493 39.0119 46.2561 38.3825ZM80.1511 34.245C79.7741 33.995 79.3694 33.7821 78.9432 33.6063C78.9003 33.5909 78.8574 33.5723 78.8145 33.5569C78.606 33.4767 78.3883 33.4026 78.1676 33.344C77.6771 33.2083 77.1651 33.125 76.6378 33.1034H54.923C55.0579 33.3841 55.1867 33.6711 55.3032 33.9611H76.6194C77.1559 33.9858 77.6771 34.0814 78.1676 34.2388C78.1737 34.2388 78.1799 34.2419 78.186 34.245C80.6631 35.0348 82.4351 37.3736 82.4351 40.135C82.4351 42.8965 80.6754 45.1519 78.2289 45.9757C78.2105 45.985 78.1891 45.9911 78.1676 45.9973C77.5606 46.1978 76.9076 46.3058 76.2331 46.3058H55.5454C55.4412 46.5959 55.3247 46.8828 55.202 47.1636H76.3128C76.9566 47.1574 77.5759 47.0648 78.1676 46.8951C78.3883 46.8334 78.6029 46.7594 78.8145 46.6761C78.8451 46.6668 78.8727 46.6545 78.9003 46.6421C78.9248 46.6329 78.9463 46.6236 78.9678 46.6144C79.2406 46.5002 79.5043 46.3706 79.7557 46.2256C79.8936 46.1454 80.0254 46.0621 80.1573 45.9757C82.0488 44.7138 83.2966 42.5663 83.2966 40.135C83.2966 37.7037 82.055 35.5069 80.1511 34.245ZM46.2561 38.3825C46.1121 38.944 46.0385 39.5303 46.0385 40.135C46.0385 40.82 46.1366 41.4803 46.3205 42.1066C46.4738 41.5543 46.5535 40.9742 46.5535 40.3757C46.5535 39.6815 46.4493 39.0119 46.2561 38.3825ZM80.1511 34.245C79.7741 33.995 79.3694 33.7821 78.9432 33.6063C78.9003 33.5909 78.8574 33.5723 78.8145 33.5569C78.606 33.4767 78.3883 33.4026 78.1676 33.344C77.6771 33.2083 77.1651 33.125 76.6378 33.1034H54.923C55.0579 33.3841 55.1867 33.6711 55.3032 33.9611H76.6194C77.1559 33.9858 77.6771 34.0814 78.1676 34.2388C78.1737 34.2388 78.1799 34.2419 78.186 34.245C80.6631 35.0348 82.4351 37.3736 82.4351 40.135C82.4351 42.8965 80.6754 45.1519 78.2289 45.9757C78.2105 45.985 78.1891 45.9911 78.1676 45.9973C77.5606 46.1978 76.9076 46.3058 76.2331 46.3058H55.5454C55.4412 46.5959 55.3247 46.8828 55.202 47.1636H76.3128C76.9566 47.1574 77.5759 47.0648 78.1676 46.8951C78.3883 46.8334 78.6029 46.7594 78.8145 46.6761C78.8451 46.6668 78.8727 46.6545 78.9003 46.6421C78.9248 46.6329 78.9463 46.6236 78.9678 46.6144C79.2406 46.5002 79.5043 46.3706 79.7557 46.2256C79.8936 46.1454 80.0254 46.0621 80.1573 45.9757C82.0488 44.7138 83.2966 42.5663 83.2966 40.135C83.2966 37.7037 82.055 35.5069 80.1511 34.245ZM46.2561 38.3825C46.1121 38.944 46.0385 39.5303 46.0385 40.135C46.0385 40.82 46.1366 41.4803 46.3205 42.1066C46.4738 41.5543 46.5535 40.9742 46.5535 40.3757C46.5535 39.6815 46.4493 39.0119 46.2561 38.3825ZM80.1511 34.245C79.7741 33.995 79.3694 33.7821 78.9432 33.6063C78.9003 33.5909 78.8574 33.5723 78.8145 33.5569C78.606 33.4767 78.3883 33.4026 78.1676 33.344C77.6771 33.2083 77.1651 33.125 76.6378 33.1034H54.923C55.0579 33.3841 55.1867 33.6711 55.3032 33.9611H76.6194C77.1559 33.9858 77.6771 34.0814 78.1676 34.2388C78.1737 34.2388 78.1799 34.2419 78.186 34.245C80.6631 35.0348 82.4351 37.3736 82.4351 40.135C82.4351 42.8965 80.6754 45.1519 78.2289 45.9757C78.2105 45.985 78.1891 45.9911 78.1676 45.9973C77.5606 46.1978 76.9076 46.3058 76.2331 46.3058H55.5454C55.4412 46.5959 55.3247 46.8828 55.202 47.1636H76.3128C76.9566 47.1574 77.5759 47.0648 78.1676 46.8951C78.3883 46.8334 78.6029 46.7594 78.8145 46.6761C78.8451 46.6668 78.8727 46.6545 78.9003 46.6421C78.9248 46.6329 78.9463 46.6236 78.9678 46.6144C79.2406 46.5002 79.5043 46.3706 79.7557 46.2256C79.8936 46.1454 80.0254 46.0621 80.1573 45.9757C82.0488 44.7138 83.2966 42.5663 83.2966 40.135C83.2966 37.7037 82.055 35.5069 80.1511 34.245Z" fill="white"/>
<path id="Vector_8" d="M54.9966 24.2174C54.2087 25.8989 53.1571 27.4262 51.891 28.7344C53.1204 30.0056 54.1474 31.4773 54.923 33.1003C55.0579 33.381 55.1867 33.668 55.3032 33.958C56.1279 35.9574 56.5816 38.1542 56.5816 40.4559C56.5816 42.5139 56.2137 44.4824 55.5454 46.3027C55.4411 46.5928 55.3246 46.8766 55.202 47.1605H53.102C49.8952 47.1605 47.1789 45.0254 46.3205 42.1035C46.4707 41.5512 46.5504 40.9712 46.5504 40.3726C46.5504 39.6784 46.4462 39.0088 46.2531 38.3763C45.456 35.7599 43.126 33.8284 40.3208 33.6988H5.05237C2.26253 33.6988 0 31.4218 0 28.611C0 25.8002 2.26253 23.5231 5.05237 23.5231H40.3239C42.847 23.4059 45.0298 21.8293 46.0385 19.6047C46.4186 18.7654 46.6332 17.8306 46.6332 16.8494C46.6332 16.22 46.5443 15.6091 46.3818 15.029C47.2954 12.2028 49.9626 10.1541 53.105 10.1541H55.3246C55.4442 10.4348 55.5576 10.7218 55.6619 11.0118C56.3118 12.8044 56.6644 14.7451 56.6644 16.7661L56.5847 17.0098C56.5847 19.2529 56.1524 21.3973 55.3676 23.3565C55.2541 23.6466 55.1284 23.9304 54.9997 24.2143L54.9966 24.2174Z" fill="white"/>
<path id="Vector_9" d="M78.8145 33.6063H78.9432C78.9003 33.5878 78.8574 33.5724 78.8145 33.5569V33.6063Z" fill="#0092FF"/>
<path id="Vector_10" d="M136.081 40.4023C136.081 49.8189 128.315 57.48 118.774 57.48H81.2772C80.707 57.48 80.1612 57.369 79.6646 57.1653C79.2477 56.9987 78.8675 56.7673 78.5272 56.4834C78.6498 56.468 78.7755 56.4495 78.8982 56.431C79.2936 56.3693 79.6891 56.2952 80.0754 56.2027C84.8948 55.0888 88.8925 51.8337 91.0079 47.5049C91.1121 47.2951 91.2072 47.0822 91.2991 46.8662C91.3942 46.6564 91.48 46.4435 91.5628 46.2275H118.778C122.03 46.2275 124.682 43.5802 124.682 40.322C124.682 37.2983 122.441 34.7992 119.47 34.4968H91.5107C91.4248 34.2808 91.3359 34.071 91.2409 33.8581C91.1489 33.6452 91.0478 33.4323 90.9435 33.2225C90.919 33.1731 90.8914 33.1207 90.8638 33.0682C90.0974 31.652 88.1414 29.412 88.1414 29.412C85.7716 26.99 82.7886 25.3887 79.545 24.7654C79.3274 24.7253 79.1128 24.6883 78.8982 24.6543C78.6836 24.6204 78.469 24.5926 78.2513 24.571V0.34436H127.07C129.456 0.34436 131.393 2.29126 131.393 4.69479V7.24643C131.393 9.64688 129.456 11.5938 127.07 11.5938H89.6559V23.2474H119.421C126.141 23.4078 132.147 27.4775 134.741 33.6144L134.906 34.0062L134.827 34.0864C135.661 36.0919 136.084 38.2178 136.084 40.4023H136.081Z" fill="white"/>
</g>
</g>
<defs>
<clipPath id="clip0_739_114395">
<rect width="136" height="104" fill="white"/>
</clipPath>
</defs>
</svg>
