<svg xmlns="http://www.w3.org/2000/svg" xmlns:xlink="http://www.w3.org/1999/xlink" viewBox="0 0 232 218"><defs><style>.cls-1{fill:none;}.cls-2{clip-path:url(#clip-path);}.cls-3{fill:#fff;}.cls-4{fill:#ecb934;}</style><clipPath id="clip-path" transform="translate(0 0)"><rect class="cls-1" width="232" height="218"/></clipPath></defs><g id="Layer_2" data-name="Layer 2"><g id="Layer_1-2" data-name="Layer 1"><g class="cls-2"><path class="cls-3" d="M161.37,218a6.2,6.2,0,0,1-4.75-2q-15.41-15.47-30.87-30.88c-.66-.65-1-1.21-.58-2.16s-.45-8.6-.86-9.05c-.64-.69-.23-.87.44-1,2.44-.42,8.15-.57,7.65-4.58a55.66,55.66,0,0,0-1.25-6.18c-.58-1.1-.58-1.12.66-1.43,11.88-2.9,19.91-10.76,21.13-11.91.48-.45.73-.51,1.13.16a20.32,20.32,0,0,0,4.57,4.64,2.63,2.63,0,0,0,2.36.57c.18-.05.39-.11.5.07s0,.41-.19.56c-1,1-2.07,1.94-3.08,2.93-2.09,2-2.1,4-.06,6,1,1,2,2,3,3a3.71,3.71,0,0,0,5.12.36,47.29,47.29,0,0,0,7.42-6.57c1.07-1.17,1.08-1.16,2.18-.06,20.18,20.2,55.73,55.77,55.89,56,.45.7.16,1.27-.69,1.37C230.64,218,173.09,218,161.37,218Z" transform="translate(0 0)"/><path class="cls-3" d="M85.26,64.52c0-2.92-5.56-10.12-9.77-6.24a102.19,102.19,0,0,0-8.14,8.51c-.59.7-1,.72-1.63.07-4-4-56.07-56.06-65-65C-.6.54.54-.09,1.62,0c.83.07,36.7.15,69,.06a7.27,7.27,0,0,1,5.53,2.3Q90.6,17,105.17,31.5c1.24,1.24.56,1.1-.39,1.3A95,95,0,0,0,94.5,35.28a3.32,3.32,0,0,0-2.44,4c.43,2,1,4,1.43,5.94,1.56,6.42-4,1.6-2.1,7.34,1.5,4.61,3,6.68,2,7.13a56,56,0,0,0-8.17,4.8Z" transform="translate(0 0)"/><path class="cls-3" d="M136.7,99.15h-6.55c-1.22,0-1-.34-.43-.91q8.94-9,17.89-17.91c.41-.4.68-.65,1.19,0,24.42,30,5.14,79.25-46.77,69.17-2.91-.56-4.76,3.44-5.68,4.83-.43.65-.78.67-1.35.1-1.75-1.71-1.79-1.71,0-3.33,10.16-9.09,50.06-44.86,50.81-45.57a3.57,3.57,0,0,0,1-4.24c-.64-1.59-2-2-3.53-2.09-2.22-.07-4.44,0-6.65,0Z" transform="translate(0 0)"/><path class="cls-3" d="M96.46,117h6.87c1.51,0,1,.54.52,1.06-2.91,3.23-15.33,15.42-18.82,19-.66.67-1,.31-1.33-.24-28.86-41.06,9.49-80,45.93-68.91,4.1,1.24,5.3-3.75,5.78-4.9.24-.57.48-.79,1-.25,2.41,2.53,2.46,1.62-.07,3.93-6.93,6.32-47.28,42.16-49.25,43.9a3.66,3.66,0,0,0-1.19,4.22c.59,1.63,2,2.17,3.57,2.2,2.33,0,4.66,0,7,0Z" transform="translate(0 0)"/><path class="cls-4" d="M64.52,173.49,69,167.8q9.31-11.9,18.64-23.79,8.5-10.8,17-21.58c2-2.54,4-5.1,6-7.65.19-.25.58-.47.41-.83s-.59-.21-.9-.21H90.93c-.29,0-.58,0-.87,0s-.74.08-.87-.28.25-.64.52-.87L106.9,97.27q8.37-7.42,16.73-14.84c5-4.4,9.86-8.83,14.8-13.23q8.48-7.55,17-15.07L165,45.56l1.35-1.2a1.47,1.47,0,0,1-.49,1.16q-5.23,6.63-10.47,13.28L142.92,74.67,123.59,99.29c-.61.78-1.25,1.52-1.86,2.29-.15.18-.44.39-.24.65s.39.15.59.15h18.34c.87,0,1.74.08,2.61.14.24,0,.57-.12.68.19s-.18.45-.36.62c-1.51,1.36-3,2.74-4.53,4.1q-6.13,5.49-12.27,11c-4.37,3.9-8.76,7.77-13.12,11.67-3.34,3-6.65,6-10,9q-7.43,6.66-14.88,13.3-5.57,5-11.12,10t-11.36,10.2a2.78,2.78,0,0,1-1.56.93Z" transform="translate(0 0)"/><path class="cls-3" d="M230.69,69.58c.7,0,1.92.33.8,1.45-6,6-34.83,34.72-44.87,44.82a2.92,2.92,0,0,1-2.4,1c-.91-.06-4-.13-4.82,1.94-.31.78-9.52-1.43-9.43-2a55.07,55.07,0,0,0,.62-11.75c0-.56.15-.66.69-.59,3.27.4,9.82-.84,9.12-5C177.56,82.51,172.15,75,169,70.88c-1.15-1.49-.45-1.28.59-1.28l61.11,0Z" transform="translate(0 0)"/><path class="cls-3" d="M54.9,128.66a83.52,83.52,0,0,0,4.08,10c1.86,3.94,4.49,3.34,5.87,2.38,1.66-1.16,3.54-2,4.92-3.57.53-.6.74.11.94.41,1.23,1.84,4.38,6.61,4.93,7.33a.81.81,0,0,1,0,1.17,5.68,5.68,0,0,1-4,2.1c-.7,0-36,0-69.61,0-2.73,0-2.16-.95-.89-2.22q18.7-18.78,37.46-37.51c.95-1,1.17-.53,1.17.47a80,80,0,0,0,3.26,21c1.29,4.73,9.89,2.26,11.95-1.52Z" transform="translate(0 0)"/><path class="cls-3" d="M65.18,109.76A51.41,51.41,0,0,1,73,82.35c5.68-9.54,13.87-16.13,23.92-20.54A47.48,47.48,0,0,1,117.94,58,64.66,64.66,0,0,1,132,60.2c.65.17.86.45.56,1.08-.41.86-.83,1.71-1.15,2.6s-.74,1-1.57.72a47.41,47.41,0,0,0-14.62-2.13A44,44,0,0,0,92,69.89a60.82,60.82,0,0,0-9.27,7.42,42.37,42.37,0,0,0-7,9.72,43,43,0,0,0-5.26,15.06,41.28,41.28,0,0,0,.41,14.32c1.68,8.25,5.46,15.53,10.22,22.35a1.6,1.6,0,0,1,.05,2.15c-.53.7-1,1.46-1.43,2.2-.66,1-.77,1-1.49.08a72.26,72.26,0,0,1-9.43-16.54,46.94,46.94,0,0,1-3.63-16.89Z" transform="translate(0 0)"/><path class="cls-3" d="M117.19,159.44a71.65,71.65,0,0,1-17.37-2.19c-1.28-.3-1.29-.37-.56-1.45.38-.58.77-1.15,1.16-1.72,1-1.5,1.07-1.51,2.86-1.12a64.91,64.91,0,0,0,14.38,1.56c14.48-.17,26.17-5.9,35.12-17.39a46.76,46.76,0,0,0,9.08-21.46A43.19,43.19,0,0,0,158,88.29a47.84,47.84,0,0,0-6.19-9.35c-.54-.65-.55-1.07,0-1.64s1.35-1.43,2-2.16c.42-.47.73-.43,1.12.07,6.38,8.24,10.85,17.32,12.09,27.77a46.89,46.89,0,0,1-.58,14.66,57,57,0,0,1-4.18,13.28,51.8,51.8,0,0,1-7,10.51,49.14,49.14,0,0,1-16.42,13.27,48.59,48.59,0,0,1-16,4.5,55.74,55.74,0,0,1-5.78.23Z" transform="translate(0 0)"/><path class="cls-4" d="M78.32,60.36a16.58,16.58,0,0,1,3.43,3.47c0,.49-.43.74-.73,1a89.51,89.51,0,0,0-13,16.68,55.29,55.29,0,0,0-7.32,19.85,53,53,0,0,0,3.61,28.24,48,48,0,0,0,2.25,5,1,1,0,0,1-.43,1.62c-.94.56-1.84,1.17-2.73,1.8-.6.42-1,.32-1.29-.33a75.34,75.34,0,0,1-7.24-23.46,53.84,53.84,0,0,1,4.49-29.17,68.71,68.71,0,0,1,10-15.66,98.87,98.87,0,0,1,8-8.46c.25-.24.46-.58.82-.6Z" transform="translate(0 0)"/><path class="cls-4" d="M185.58,120.25c.77,0,1.53,0,2.3,0s.88.29.74,1c-2.45,11.72-6.26,22.88-13.51,32.61a52,52,0,0,1-9.91,10.09c-.87.67-1.54,1-2.36-.08a17.66,17.66,0,0,0-2.19-2.13c-.71-.61-.59-1.06.06-1.66a69.75,69.75,0,0,0,10.7-12.49,72.87,72.87,0,0,0,10.53-25.47,2.07,2.07,0,0,1,2.23-1.83h1.41Z" transform="translate(0 0)"/><path class="cls-4" d="M115.06,35.27a94.81,94.81,0,0,1,23.38,3.13c.64.16.84.48.61,1.11-.48,1.33-1,2.66-1.41,4-.22.66-.6.8-1.25.64-2.91-.68-5.83-1.25-8.78-1.69-9.81-1.48-19.55-1.35-29.16,1.39-.32.09-.64.16-1,.26-.62.21-1,0-1.12-.64-.33-1.38-.64-2.76-1-4.13-.19-.74.21-1,.8-1.14A62,62,0,0,1,108,35.75a55.08,55.08,0,0,1,7.07-.48Z" transform="translate(0 0)"/><path class="cls-4" d="M43,108.17A74.94,74.94,0,0,1,45.7,87.8c.43-1.61.45-1.62,2.06-1.16,1,.29,2,.65,3,1a.83.83,0,0,1,.64,1.16A83.43,83.43,0,0,0,49.46,101a81.47,81.47,0,0,0-.25,10,94.29,94.29,0,0,0,1.22,11.37c.27,1.57.62,3.14,1,4.69.15.64,0,.94-.62,1.13-1.26.37-2.51.75-3.74,1.18-.72.24-1,0-1.15-.69a91.25,91.25,0,0,1-3-20.53Z" transform="translate(0 0)"/><path class="cls-4" d="M172,120.61c1.32.26,2.64.51,3.95.79.61.13.55.57.46,1a56.43,56.43,0,0,1-6,16.56,46.94,46.94,0,0,1-8.57,10.95c-1.3,1.22-1.3,1.21-2.56,0-.59-.58-1.14-1.22-1.78-1.76s-.56-1,0-1.64a67.64,67.64,0,0,0,12.36-21.29c.46-1.26.86-2.55,1.29-3.82.14-.42.24-.88.86-.78Z" transform="translate(0 0)"/><path class="cls-4" d="M95.13,179.33c-2.56-.79-2.58-.74-2.18-3.36.14-.93.34-1.86.43-2.8s.45-1,1.16-.7A63.07,63.07,0,0,0,120.59,176c.81-.07,1.17.14,1.25,1,.11,1.34.15,2.68.18,4,0,.75-.29,1-1,1a74.76,74.76,0,0,1-25.86-2.81Z" transform="translate(0 0)"/><path class="cls-4" d="M177.09,99.68c.08.4-.2.61-.59.7l-3.49.86c-.81.18-.91-.42-1-1a48.94,48.94,0,0,0-2.53-10.13,56.45,56.45,0,0,0-8.23-14.94c-.94-1.26-.95-1.26.28-2.14.77-.55,1.58-1,2.3-1.65s1-.39,1.52.2a49.39,49.39,0,0,1,6.91,11.07A62.84,62.84,0,0,1,177,99c0,.22.05.43.08.72Z" transform="translate(0 0)"/><path class="cls-3" d="M114.67,47.07a40,40,0,0,1,6.1.39c.73.1,1,.41,1,1.13,0,1.13,0,2.25,0,3.38,0,.79-.27,1.09-1.12,1a44.58,44.58,0,0,0-22.93,3.21c-1.42.61-1.43.59-1.94-.83-.36-1-.7-2.07-1.09-3.08-.27-.69-.1-1.05.59-1.36A47,47,0,0,1,108.7,47.3,50.37,50.37,0,0,1,114.67,47.07Z" transform="translate(0 0)"/><path class="cls-3" d="M115,167.9c0-4.81-1.18-1.43,12-4,2.05-.39,1.79,3.07,2,4.18s-2.68,1.46-5.26,1.7c-10,.93-8.73.9-8.73-1.91Z" transform="translate(0 0)"/><path class="cls-3" d="M102.31,161.17a92.77,92.77,0,0,0,9.52,1.29c.64,0,1,.14.53.89-.74,1.22-.59,5.86-.59,7.29C108.68,167.56,105.49,164.36,102.31,161.17Z" transform="translate(0 0)"/><path class="cls-3" d="M129.53,56.29c-1.11-.21-4.62-.67-5-1s.27-3.36.76-3.47,3,2.8,4.4,4.22l-.15.28Z" transform="translate(0 0)"/><path class="cls-3" d="M160.38,69.69c-1,1-2.21,1.6-2.92,2.66-.27.38-.57,0-.81-.22s-.31-.54,0-.81a5.28,5.28,0,0,1,3.75-1.63Z" transform="translate(0 0)"/></g></g></g></svg>